<svg width="76" height="76" viewBox="0 0 76 76" fill="none" xmlns="http://www.w3.org/2000/svg">
    <path fill-rule="evenodd" clip-rule="evenodd" d="M1.10001 44.6997L3.5 44.0997C3.3 43.1997 3.20001 42.2997 3.10001 41.3997H0.600006C0.500006 40.2997 0.5 39.2997 0.5 38.1997C0.5 37.0997 0.500006 35.9997 0.600006 34.9997H3.10001C3.20001 34.0997 3.3 33.1997 3.5 32.2997L1.10001 31.6997C1.50001 29.5997 2 27.4997 2.8 25.4997L5.2 26.0997C5.5 25.1997 5.9 24.3997 6.2 23.5997L4 22.3997C4.9 20.3997 6 18.5997 7.2 16.7997L9.39999 17.9997C9.89999 17.2997 10.5 16.4997 11.1 15.7997L9.3 13.9997C10.7 12.3997 12.2 10.7997 13.8 9.4997L15.6 11.2997C16.3 10.6997 17 10.1997 17.8 9.5997L16.6 7.39971C18.4 6.19971 20.2 5.09971 22.2 4.19971L23.4 6.39971C24.2 5.99971 25.1 5.69971 25.9 5.39971L25.3 2.99971C27.3 2.29971 29.4 1.69971 31.5 1.29971L32.1 3.69971C33 3.49971 33.9 3.39971 34.8 3.29971V0.799707C35.9 0.699707 36.9 0.699707 38 0.699707C39.1 0.699707 40.2 0.699707 41.2 0.799707V3.29971C42.1 3.39971 43 3.49971 43.9 3.69971L44.5 1.29971C46.6 1.69971 48.7 2.19971 50.7 2.99971L50.1 5.39971C51 5.69971 51.8 6.09971 52.6 6.39971L53.8 4.19971C55.8 5.09971 57.6 6.19971 59.4 7.39971L58.2 9.5997C58.9 10.0997 59.7 10.6997 60.4 11.2997L62.2 9.4997C63.8 10.8997 65.4 12.3997 66.7 13.9997L64.9 15.7997C65.5 16.4997 66 17.1997 66.6 17.9997L68.8 16.7997C70 18.5997 71.1 20.3997 72 22.3997L69.8 23.5997C70.2 24.3997 70.5 25.2997 70.8 26.0997L73.2 25.4997C73.9 27.4997 74.5 29.5997 74.9 31.6997L72.5 32.2997C72.7 33.1997 72.8 34.0997 72.9 34.9997H75.4C75.5 36.0997 75.5 37.0997 75.5 38.1997C75.5 39.2997 75.5 40.3997 75.4 41.3997H72.9C72.8 42.2997 72.7 43.1997 72.5 44.0997L74.9 44.6997C74.5 46.7997 74 48.8997 73.2 50.8997L70.8 50.2997C70.5 51.1997 70.1 51.9997 69.8 52.7997L72 53.9997C71.1 55.9997 70 57.7997 68.8 59.5997L66.6 58.3997C66.1 59.0997 65.5 59.8997 64.9 60.5997L66.7 62.3997C65.3 63.9997 63.8 65.5997 62.2 66.8997L60.4 65.0997C59.7 65.6997 59 66.1997 58.2 66.7997L59.4 68.9997C57.6 70.1997 55.8 71.2997 53.8 72.1997L52.6 69.9997C51.8 70.3997 50.9 70.6997 50.1 70.9997L50.7 73.3997C48.7 74.0997 46.6 74.6997 44.5 75.0997L43.9 72.6997C43 72.8997 42.1 72.9997 41.2 73.0997V75.5997C40.1 75.6997 39.1 75.6997 38 75.6997C36.9 75.6997 35.8 75.6997 34.8 75.5997V72.9997C33.9 72.8997 33 72.7997 32.1 72.5997L31.5 74.9997C29.4 74.5997 27.3 74.0997 25.3 73.2997L25.9 70.8997C25 70.5997 24.2 70.1997 23.4 69.8997L22.2 72.0997C20.2 71.1997 18.4 70.0997 16.6 68.8997L17.8 66.6997C17.1 66.1997 16.3 65.5997 15.6 64.9997L13.8 66.7997C12.2 65.3997 10.6 63.8997 9.3 62.2997L11.1 60.4997C10.5 59.7997 9.99999 59.0997 9.39999 58.2997L7.2 59.4997C6 57.6997 4.9 55.8997 4 53.8997L6.2 52.6997C5.8 51.8997 5.5 50.9997 5.2 50.1997L2.8 50.7997C2 48.8997 1.50001 46.8997 1.10001 44.6997Z" fill="white"/>
    <path d="M1.10001 44.6997L3.5 44.0997C3.3 43.1997 3.20001 42.2997 3.10001 41.3997H0.600006C0.500006 40.2997 0.5 39.2997 0.5 38.1997C0.5 37.0997 0.500006 35.9997 0.600006 34.9997H3.10001C3.20001 34.0997 3.3 33.1997 3.5 32.2997L1.10001 31.6997C1.50001 29.5997 2 27.4997 2.8 25.4997L5.2 26.0997C5.5 25.1997 5.9 24.3997 6.2 23.5997L4 22.3997C4.9 20.3997 6 18.5997 7.2 16.7997L9.39999 17.9997C9.89999 17.2997 10.5 16.4997 11.1 15.7997L9.3 13.9997C10.7 12.3997 12.2 10.7997 13.8 9.4997L15.6 11.2997C16.3 10.6997 17 10.1997 17.8 9.5997L16.6 7.39971C18.4 6.19971 20.2 5.09971 22.2 4.19971L23.4 6.39971C24.2 5.99971 25.1 5.69971 25.9 5.39971L25.3 2.99971C27.3 2.29971 29.4 1.69971 31.5 1.29971L32.1 3.69971C33 3.49971 33.9 3.39971 34.8 3.29971V0.799707C35.9 0.699707 36.9 0.699707 38 0.699707C39.1 0.699707 40.2 0.699707 41.2 0.799707V3.29971C42.1 3.39971 43 3.49971 43.9 3.69971L44.5 1.29971C46.6 1.69971 48.7 2.19971 50.7 2.99971L50.1 5.39971C51 5.69971 51.8 6.09971 52.6 6.39971L53.8 4.19971C55.8 5.09971 57.6 6.19971 59.4 7.39971L58.2 9.5997C58.9 10.0997 59.7 10.6997 60.4 11.2997L62.2 9.4997C63.8 10.8997 65.4 12.3997 66.7 13.9997L64.9 15.7997C65.5 16.4997 66 17.1997 66.6 17.9997L68.8 16.7997C70 18.5997 71.1 20.3997 72 22.3997L69.8 23.5997C70.2 24.3997 70.5 25.2997 70.8 26.0997L73.2 25.4997C73.9 27.4997 74.5 29.5997 74.9 31.6997L72.5 32.2997C72.7 33.1997 72.8 34.0997 72.9 34.9997H75.4C75.5 36.0997 75.5 37.0997 75.5 38.1997C75.5 39.2997 75.5 40.3997 75.4 41.3997H72.9C72.8 42.2997 72.7 43.1997 72.5 44.0997L74.9 44.6997C74.5 46.7997 74 48.8997 73.2 50.8997L70.8 50.2997C70.5 51.1997 70.1 51.9997 69.8 52.7997L72 53.9997C71.1 55.9997 70 57.7997 68.8 59.5997L66.6 58.3997C66.1 59.0997 65.5 59.8997 64.9 60.5997L66.7 62.3997C65.3 63.9997 63.8 65.5997 62.2 66.8997L60.4 65.0997C59.7 65.6997 59 66.1997 58.2 66.7997L59.4 68.9997C57.6 70.1997 55.8 71.2997 53.8 72.1997L52.6 69.9997C51.8 70.3997 50.9 70.6997 50.1 70.9997L50.7 73.3997C48.7 74.0997 46.6 74.6997 44.5 75.0997L43.9 72.6997C43 72.8997 42.1 72.9997 41.2 73.0997V75.5997C40.1 75.6997 39.1 75.6997 38 75.6997C36.9 75.6997 35.8 75.6997 34.8 75.5997V72.9997C33.9 72.8997 33 72.7997 32.1 72.5997L31.5 74.9997C29.4 74.5997 27.3 74.0997 25.3 73.2997L25.9 70.8997C25 70.5997 24.2 70.1997 23.4 69.8997L22.2 72.0997C20.2 71.1997 18.4 70.0997 16.6 68.8997L17.8 66.6997C17.1 66.1997 16.3 65.5997 15.6 64.9997L13.8 66.7997C12.2 65.3997 10.6 63.8997 9.3 62.2997L11.1 60.4997C10.5 59.7997 9.99999 59.0997 9.39999 58.2997L7.2 59.4997C6 57.6997 4.9 55.8997 4 53.8997L6.2 52.6997C5.8 51.8997 5.5 50.9997 5.2 50.1997L2.8 50.7997C2 48.8997 1.50001 46.8997 1.10001 44.6997Z" stroke="black" stroke-width="0.1306" stroke-miterlimit="2.6131"/>
    <path fill-rule="evenodd" clip-rule="evenodd" d="M1.10001 44.6998L3.5 44.0998C3.3 43.1998 3.20001 42.2998 3.10001 41.3998H0.600006C0.500006 40.2998 0.5 39.2998 0.5 38.1998C0.5 37.3998 0.500006 36.5998 0.600006 35.7998L1 35.3998L4.2 35.5998H71.3L75 35.2998L75.4 35.7998C75.4 36.5998 75.5 37.3998 75.5 38.1998C75.5 39.2998 75.5 40.3998 75.4 41.3998H72.9C72.8 42.2998 72.7 43.1998 72.5 44.0998L74.9 44.6998C74.5 46.7998 74 48.8998 73.2 50.8998L70.8 50.2998C70.5 51.1998 70.1 51.9998 69.8 52.7998L72 53.9998C71.1 55.9998 70 57.7998 68.8 59.5998L66.6 58.3998C66.1 59.0998 65.5 59.8998 64.9 60.5998L66.7 62.3998C65.3 63.9998 63.8 65.5998 62.2 66.8998L60.4 65.0998C59.7 65.6998 59 66.1998 58.2 66.7998L59.4 68.9998C57.6 70.1998 55.8 71.2998 53.8 72.1998L52.6 69.9998C51.8 70.3998 50.9 70.6998 50.1 70.9998L50.7 73.3998C48.7 74.0998 46.6 74.6998 44.5 75.0998L43.9 72.6998C43 72.8998 42.1 72.9998 41.2 73.0998V75.5998C40.1 75.6998 39.1 75.6998 38 75.6998C36.9 75.6998 35.8 75.6998 34.8 75.5998V72.9998C33.9 72.8998 33 72.7998 32.1 72.5998L31.5 74.9998C29.4 74.5998 27.3 74.0998 25.3 73.2998L25.9 70.8998C25 70.5998 24.2 70.1998 23.4 69.8998L22.2 72.0998C20.2 71.1998 18.4 70.0998 16.6 68.8998L17.8 66.6998C17.1 66.1998 16.3 65.5998 15.6 64.9998L13.8 66.7998C12.2 65.3998 10.6 63.8998 9.3 62.2998L11.1 60.4998C10.5 59.7998 9.99999 59.0998 9.39999 58.2998L7.2 59.4998C6 57.6998 4.9 55.8998 4 53.8998L6.2 52.6998C5.8 51.8998 5.5 50.9998 5.2 50.1998L2.8 50.7998C2 48.8998 1.50001 46.8998 1.10001 44.6998Z" fill="black"/>
    <path d="M1.10001 44.6998L3.5 44.0998C3.3 43.1998 3.20001 42.2998 3.10001 41.3998H0.600006C0.500006 40.2998 0.5 39.2998 0.5 38.1998C0.5 37.3998 0.500006 36.5998 0.600006 35.7998L1 35.3998L4.2 35.5998H71.3L75 35.2998L75.4 35.7998C75.4 36.5998 75.5 37.3998 75.5 38.1998C75.5 39.2998 75.5 40.3998 75.4 41.3998H72.9C72.8 42.2998 72.7 43.1998 72.5 44.0998L74.9 44.6998C74.5 46.7998 74 48.8998 73.2 50.8998L70.8 50.2998C70.5 51.1998 70.1 51.9998 69.8 52.7998L72 53.9998C71.1 55.9998 70 57.7998 68.8 59.5998L66.6 58.3998C66.1 59.0998 65.5 59.8998 64.9 60.5998L66.7 62.3998C65.3 63.9998 63.8 65.5998 62.2 66.8998L60.4 65.0998C59.7 65.6998 59 66.1998 58.2 66.7998L59.4 68.9998C57.6 70.1998 55.8 71.2998 53.8 72.1998L52.6 69.9998C51.8 70.3998 50.9 70.6998 50.1 70.9998L50.7 73.3998C48.7 74.0998 46.6 74.6998 44.5 75.0998L43.9 72.6998C43 72.8998 42.1 72.9998 41.2 73.0998V75.5998C40.1 75.6998 39.1 75.6998 38 75.6998C36.9 75.6998 35.8 75.6998 34.8 75.5998V72.9998C33.9 72.8998 33 72.7998 32.1 72.5998L31.5 74.9998C29.4 74.5998 27.3 74.0998 25.3 73.2998L25.9 70.8998C25 70.5998 24.2 70.1998 23.4 69.8998L22.2 72.0998C20.2 71.1998 18.4 70.0998 16.6 68.8998L17.8 66.6998C17.1 66.1998 16.3 65.5998 15.6 64.9998L13.8 66.7998C12.2 65.3998 10.6 63.8998 9.3 62.2998L11.1 60.4998C10.5 59.7998 9.99999 59.0998 9.39999 58.2998L7.2 59.4998C6 57.6998 4.9 55.8998 4 53.8998L6.2 52.6998C5.8 51.8998 5.5 50.9998 5.2 50.1998L2.8 50.7998C2 48.8998 1.50001 46.8998 1.10001 44.6998Z" stroke="black" stroke-width="0.087099" stroke-miterlimit="2.6131"/>
    <path fill-rule="evenodd" clip-rule="evenodd" d="M38 3.99951C56.1 3.99951 71.3 17.9995 72.5 35.7995H62.8C61.6 23.1995 51 13.2995 38.1 13.2995C25.2 13.2995 14.4999 23.1995 13.3999 35.7995H3.69995C4.79995 17.9995 19.9 3.99951 38 3.99951Z" fill="white"/>
    <path fill-rule="evenodd" clip-rule="evenodd" d="M37.9999 13.0996C51.8999 13.0996 63.0999 24.2996 63.0999 38.1996C63.0999 52.0996 51.8999 63.2996 37.9999 63.2996C24.0999 63.2996 12.8999 52.0996 12.8999 38.1996C12.8999 24.2996 24.1999 13.0996 37.9999 13.0996Z" fill="white"/>
    <path d="M37.9999 13.0996C51.8999 13.0996 63.0999 24.2996 63.0999 38.1996C63.0999 52.0996 51.8999 63.2996 37.9999 63.2996C24.0999 63.2996 12.8999 52.0996 12.8999 38.1996C12.8999 24.2996 24.1999 13.0996 37.9999 13.0996Z" stroke="black" stroke-width="0.1306" stroke-miterlimit="2.6131"/>
    <path fill-rule="evenodd" clip-rule="evenodd" d="M38.8001 14.3999C37.7001 22.7999 15.9001 27.0999 18.8001 43.8999C19.2001 45.4999 19.6 46.3999 20.7 47.7999C25 53.3999 29.8001 55.0999 38.1001 56.8999C60.7001 52.8999 61 36.4999 52.2 34.7999C46.4 34.0999 41.5001 35.0999 37.6001 38.5999C45.8001 32.8999 55.4001 36.5999 51.8001 45.1999C50.3001 48.3999 43.8 52.6999 38 53.9999C24.7 50.9999 17.5 41.4999 27.9 30.1999C36 22.4999 38.9001 18.7999 38.8001 14.3999Z" fill="#BC1839"/>
    <path fill-rule="evenodd" clip-rule="evenodd" d="M38.3001 20.3999C34.1001 29.2999 19.7001 33.7999 25.0001 44.9999C28.2001 49.4999 32.9001 51.8999 38.0001 53.1999C58.0001 47.0999 52.9001 33.0999 42.3001 37.0999C51.1001 35.9999 51.4001 46.4999 38.0001 50.6999C29.7001 48.7999 25.4001 43.8999 28.1001 37.1999C30.7001 30.3999 36.4001 28.7999 38.3001 20.3999Z" fill="#F48120"/>
    <path fill-rule="evenodd" clip-rule="evenodd" d="M27.8999 40.6998C31.3999 34.6998 41.6999 35.6998 38.6999 20.2998C38.8999 32.8998 28.0999 34.1998 27.8999 40.6998Z" fill="#F48120"/>
    <path d="M42.3001 57.6997H33.6001V59.4997H42.3001V57.6997Z" fill="#BC1839"/>
    <path d="M40.9999 60.1997H34.8999V61.9997H40.9999V60.1997Z" fill="#BC1839"/>
    <path fill-rule="evenodd" clip-rule="evenodd" d="M39.3 18.0996C42.8 24.3996 43.6 30.4996 36.2 35.9996C40.7 30.2996 41.4 24.2996 39.3 18.0996Z" fill="#F48120"/>
    <path fill-rule="evenodd" clip-rule="evenodd" d="M62.8 23.3998L64.2 21.7998L62.1 22.3998L62.8 23.3998ZM62 24.3998L60.9 22.6998L60 22.9998L59 21.4998L65 20.1998L66 21.7998L62.4 26.6998L61.4 25.0998L62 24.3998ZM58.6 16.2998L59.1 16.7998C59.2 16.8998 59.3 16.8998 59.5 17.0998C59.6 17.1998 59.7 17.1998 59.8 17.1998C59.9 17.1998 60 17.0998 60.1 16.9998C60.2 16.8998 60.3 16.6998 60.3 16.5998C60.3 16.3998 60.2 16.2998 59.9 15.9998L59.3 15.4998L58.6 16.2998ZM55 17.4998L58.9 13.3998L61 15.3998C61.4 15.7998 61.7 16.0998 61.8 16.3998C61.9 16.6998 62 16.9998 61.9 17.2998C61.9 17.5998 61.7 17.8998 61.5 18.1998C61.3 18.3998 61 18.5998 60.8 18.6998C60.5 18.7998 60.3 18.7998 60 18.6998C59.8 18.6998 59.6 18.5998 59.4 18.3998C59.5 18.5998 59.6 18.7998 59.6 18.8998C59.6 18.9998 59.6 19.0998 59.6 19.2998C59.6 19.4998 59.6 19.5998 59.5 19.6998L59 21.4998L57.6 20.0998L58.1 18.1998C58.2 17.9998 58.2 17.7998 58.2 17.6998C58.2 17.4998 58.1 17.3998 58 17.2998L57.9 17.1998L56.3 18.8998L55 17.4998ZM53.3 9.4998L57.3 11.9998L56.6 12.9998L54.1 11.3998L53.6 12.1998L55.9 13.6998L55.3 14.6998L53 13.1998L52.4 14.0998L55 15.6998L54.3 16.7998L50.3 14.1998L53.3 9.4998ZM46 10.1998L47.4 10.9998C47.2 11.3998 47 11.6998 46.7 11.8998C46.4 12.0998 46.1 12.2998 45.7 12.3998C45.3 12.4998 44.9 12.3998 44.4 12.2998C43.8 12.1998 43.3 11.9998 43 11.6998C42.7 11.3998 42.4 11.0998 42.2 10.4998C42 9.9998 42 9.3998 42.2 8.6998C42.4 7.7998 42.8 7.0998 43.4 6.7998C44 6.3998 44.8 6.2998 45.6 6.4998C46.3 6.6998 46.8 6.8998 47.2 7.2998C47.5 7.6998 47.7 8.1998 47.8 8.7998H46.2C46.2 8.5998 46.2 8.49981 46.1 8.39981C46 8.19981 45.9 8.0998 45.8 7.9998C45.7 7.8998 45.5 7.7998 45.4 7.7998C45 7.6998 44.7 7.7998 44.4 8.0998C44.2 8.2998 44 8.5998 43.9 9.0998C43.8 9.6998 43.8 10.1998 43.9 10.3998C44 10.6998 44.3 10.7998 44.6 10.8998C44.9 10.9998 45.2 10.8998 45.4 10.7998C45.7 10.7998 45.8 10.4998 46 10.1998ZM39.2 5.7998L41 5.8998L40.6 11.5998L38.8 11.4998L39.2 5.7998ZM31.3 6.39981L33 6.1998L33.3 8.1998L35.2 7.9998L34.9 5.9998L36.7 5.7998L37.4 11.4998L35.6 11.6998L35.3 9.39981L33.4 9.5998L33.7 11.8998L32 12.0998L31.3 6.39981ZM27.1 10.2998L27.5 10.0998C27.8 9.9998 28 9.7998 28.1 9.6998C28.2 9.4998 28.2 9.3998 28.1 9.1998C28 8.9998 27.9 8.8998 27.8 8.7998C27.6 8.6998 27.4 8.79981 27.1 8.89981L26.6 9.0998L27.1 10.2998ZM24.6 8.6998L27.3 7.5998C27.9 7.3998 28.4 7.2998 28.8 7.4998C29.2 7.6998 29.5 7.9998 29.7 8.4998C29.9 8.9998 29.9 9.49981 29.7 9.89981C29.5 10.2998 29.1 10.6998 28.4 10.8998L27.5 11.2998L28.3 13.2998L26.7 13.8998L24.6 8.6998ZM22.8 13.5998L21.2 12.1998L21.8 14.2998L22.8 13.5998ZM23.7 14.4998L22 15.5998L22.3 16.4998L20.8 17.4998L19.5 11.4998L21.1 10.4998L26 14.0998L24.4 15.0998L23.7 14.4998ZM15.7 17.9998L16.2 17.4998C16.3 17.3998 16.3 17.2998 16.5 17.0998C16.6 16.9998 16.6 16.8998 16.6 16.7998C16.6 16.6998 16.5 16.5998 16.4 16.4998C16.3 16.3998 16.1 16.2998 16 16.2998C15.8 16.2998 15.7 16.3998 15.4 16.6998L14.9 17.2998L15.7 17.9998ZM16.9 21.5998L12.8 17.6998L14.8 15.5998C15.2 15.1998 15.5 14.8998 15.8 14.7998C16.1 14.6998 16.4 14.5998 16.7 14.6998C17 14.6998 17.3 14.8998 17.6 15.0998C17.8 15.2998 18 15.5998 18.1 15.7998C18.2 16.0998 18.2 16.2998 18.1 16.5998C18.1 16.7998 18 16.9998 17.8 17.1998C18 17.0998 18.2 16.9998 18.3 16.9998C18.4 16.9998 18.5 16.9998 18.7 16.9998C18.9 16.9998 19 16.9998 19.1 17.0998L20.9 17.5998L19.5 18.9998L17.6 18.4998C17.4 18.3998 17.2 18.3998 17.1 18.3998C16.9 18.3998 16.8 18.4998 16.7 18.5998L16.6 18.6998L18.3 20.2998L16.9 21.5998ZM13.2 23.6998L12.2 23.0998L13.6 20.6998L15.7 21.8998C15.7 22.4998 15.7 22.9998 15.6 23.4998C15.5 23.8998 15.3 24.3998 15.1 24.7998C14.8 25.3998 14.4 25.7998 14 26.0998C13.6 26.3998 13.1 26.4998 12.6 26.3998C12.1 26.3998 11.6 26.1998 11.1 25.8998C10.6 25.5998 10.2 25.1998 9.89999 24.7998C9.59999 24.2998 9.5 23.7998 9.6 23.2998C9.6 22.8998 9.8 22.3998 10.1 21.7998C10.4 21.2998 10.7 20.8998 11 20.6998C11.3 20.4998 11.5 20.2998 11.8 20.2998C12.1 20.1998 12.5 20.2998 12.8 20.3998L12.2 21.9998C12 21.9998 11.8 21.9998 11.6 22.0998C11.4 22.1998 11.3 22.2998 11.1 22.5998C10.9 22.8998 10.9 23.2998 11 23.5998C11.1 23.8998 11.4 24.1998 11.9 24.4998C12.4 24.7998 12.9 24.8998 13.2 24.8998C13.5 24.7998 13.8 24.5998 14 24.2998C14.1 24.0998 14.2 23.9998 14.2 23.7998C14.2 23.5998 14.3 23.3998 14.3 23.0998L13.8 22.7998L13.2 23.6998Z" fill="#BC1839"/>
    <path fill-rule="evenodd" clip-rule="evenodd" d="M66.8999 37.0996L69.3999 38.6996L71.3 38.7996V39.8996L69.5 39.7996L66.8 41.2996V39.9996L68.3999 39.1996L66.8 38.2996L66.8999 37.0996ZM70.7 44.7996L67.2 44.0996L67 45.3996L66.2 45.1996L66.8999 41.4996L67.7 41.6996L67.5 42.9996L71 43.6996L70.7 44.7996ZM70.1 47.2996L69.3 49.5996L68.6 49.3996L68.8 48.7996L66.1 47.8996L65.8999 48.4996L65.2 48.2996L66 45.9996L66.7 46.1996L66.5 46.7996L69.2 47.6996L69.3999 47.0996L70.1 47.2996ZM68.1 52.6996C68 52.9996 67.8 53.2996 67.6 53.4996C67.4 53.6996 67.3 53.8996 67.1 54.0996L66.1 53.6996V53.5996C66.4 53.4996 66.6 53.2996 66.8 53.0996C67 52.8996 67.2 52.6996 67.3 52.3996C67.3 52.2996 67.3999 52.2996 67.3999 52.1996C67.3999 52.0996 67.3999 51.9996 67.3999 51.8996C67.3999 51.7996 67.3999 51.6996 67.3999 51.6996C67.3999 51.5996 67.3 51.5996 67.2 51.4996C67.1 51.4996 66.9999 51.4996 66.8999 51.4996C66.7999 51.5996 66.7 51.5996 66.6 51.6996C66.5 51.7996 66.4 51.9996 66.3 52.0996C66.2 52.1996 66.1 52.3996 66 52.4996C65.7 52.7996 65.5 52.8996 65.3 52.9996C65.1 53.0996 64.8 52.9996 64.5 52.8996C64.1 52.6996 63.9 52.3996 63.8 51.9996C63.7 51.5996 63.8 51.0996 64 50.5996C64.1 50.3996 64.1999 50.0996 64.3999 49.8996C64.5999 49.6996 64.6999 49.4996 64.8999 49.2996L65.8 49.6996V49.7996C65.6 49.8996 65.4 49.9996 65.2 50.1996C65 50.3996 64.9 50.5996 64.8 50.7996C64.8 50.8996 64.7 50.9996 64.7 50.9996C64.7 51.0996 64.7 51.1996 64.7 51.2996C64.7 51.3996 64.7 51.3996 64.8 51.4996C64.8 51.5996 64.9 51.5996 65 51.6996C65.1 51.6996 65.2 51.6996 65.3 51.6996C65.4 51.6996 65.5 51.4996 65.7 51.2996C65.8 51.1996 65.9 51.0996 66 50.8996C66.1 50.7996 66.2 50.6996 66.3 50.4996C66.5 50.2996 66.8 50.0996 67 50.0996C67.2 49.9996 67.5 50.0996 67.8 50.1996C68.2 50.3996 68.5 50.6996 68.6 51.0996C68.4 51.6996 68.4 52.1996 68.1 52.6996ZM63.3 54.6996C63.2 54.5996 63.1 54.5996 63 54.5996C62.9 54.5996 62.8 54.5996 62.7 54.6996C62.6 54.6996 62.6 54.7996 62.5 54.8996C62.4 54.9996 62.4 54.9996 62.3 55.1996L62.1 55.4996L63.1 56.1996L63.3 55.8996C63.4 55.7996 63.5 55.6996 63.5 55.5996C63.5 55.4996 63.6 55.3996 63.6 55.2996C63.6 55.1996 63.6 55.0996 63.5 55.0996C63.5 54.8996 63.4 54.7996 63.3 54.6996ZM66.8999 55.0996L66.1 56.1996H64L63.8 56.4996L65.1 57.4996L64.3999 58.3996L60.8 55.7996L61.8999 54.3996C61.9999 54.1996 62.2 53.9996 62.3 53.8996C62.4 53.7996 62.6 53.6996 62.8 53.5996C63 53.4996 63.2 53.4996 63.3 53.4996C63.5 53.4996 63.6999 53.5996 63.8999 53.6996C64.1999 53.8996 64.3999 54.0996 64.3999 54.3996C64.4999 54.5996 64.4999 54.8996 64.3999 55.1996L66.8999 55.0996ZM61.3 61.9996L58.1 58.8996L60.2 56.6996L60.8 57.2996L59.5 58.6996L60.1 59.1996L61.3 57.8996L61.8999 58.4996L60.7 59.7996L61.5 60.5996L62.8 59.1996L63.3999 59.7996L61.3 61.9996ZM57.6 59.4996L59.2 63.8996L58.3 64.5996L54.3 62.0996L55.2 61.3996L57.8 63.0996L56.7 60.0996L57.6 59.4996ZM56 66.2996L53.8999 67.4996L53.5 66.7996L54.1 66.4996L52.6 63.9996L52 64.2996L51.6 63.5996L53.7 62.3996L54.1 63.0996L53.5 63.3996L55 65.8996L55.6 65.5996L56 66.2996ZM52.3999 68.2996L51.3999 68.6996L48.7 66.4996L49.8 69.3996L48.8 69.7996L47.2 65.6996L48.5 65.1996L50.8 66.9996L49.8999 64.5996L50.8999 64.1996L52.3999 68.2996ZM45.3 70.7996C44.7 70.8996 44.1999 70.8996 43.8999 70.6996C43.4999 70.4996 43.3 70.0996 43.1 69.5996L42.5 66.7996L43.6 66.4996L44.2 69.1996C44.3 69.4996 44.4 69.6996 44.5 69.7996C44.6 69.8996 44.8 69.9996 45.1 69.8996C45.3 69.7996 45.5 69.6996 45.6 69.5996C45.7 69.3996 45.7 69.1996 45.6 68.8996L45 66.1996L46.1 65.8996L46.7 68.6996C46.8 69.1996 46.8 69.6996 46.5 69.9996C46.3 70.3996 45.9 70.5996 45.3 70.7996ZM37 71.4996L36.8 67.0996L39.8 66.9996V67.8996L37.8999 67.9996V68.7996L39.7 68.6996V69.5996L37.8999 69.6996V70.7996L39.8 70.6996V71.5996L37 71.4996ZM34.3999 69.8996C34.3999 69.7996 34.3999 69.6996 34.3999 69.5996C34.3999 69.4996 34.3 69.3996 34.2 69.3996C34.1 69.3996 33.9999 69.2996 33.8999 69.2996C33.7999 69.2996 33.5999 69.2996 33.3999 69.1996H33.2L33.1 70.2996H33.2C33.5 70.2996 33.7 70.3996 33.8 70.3996C33.9 70.3996 34 70.3996 34.1 70.3996C34.2 70.3996 34.3 70.2996 34.3 70.1996C34.3 70.0996 34.2999 69.9996 34.3999 69.8996ZM34.3 68.0996C34.3 67.9996 34.3 67.9996 34.3 67.8996C34.3 67.7996 34.2 67.7996 34.1 67.6996C34 67.6996 33.9 67.5996 33.8 67.5996C33.7 67.5996 33.5999 67.5996 33.3999 67.4996H33.3L33.2 68.3996H33.3C33.5 68.3996 33.6 68.3996 33.7 68.3996C33.8 68.3996 33.8999 68.3996 33.8999 68.3996C33.9999 68.3996 34.1 68.2996 34.1 68.1996C34.3 68.1996 34.3 68.1996 34.3 68.0996ZM35.5 70.0996C35.5 70.2996 35.4 70.4996 35.3 70.6996C35.2 70.8996 35.0999 70.9996 34.8999 71.0996C34.6999 71.1996 34.5 71.2996 34.3 71.2996C34.1 71.2996 33.8 71.2996 33.5 71.2996L31.7 71.0996L32.2 66.6996L33.8 66.8996C34.1 66.8996 34.4 66.9996 34.5 66.9996C34.7 66.9996 34.8 67.0996 35 67.1996C35.1 67.2996 35.3 67.3996 35.3 67.5996C35.4 67.7996 35.3999 67.8996 35.3999 68.0996C35.3999 68.2996 35.3 68.4996 35.2 68.6996C35.1 68.8996 34.9 68.9996 34.7 68.9996C35 69.0996 35.2 69.1996 35.3 69.3996C35.5 69.4996 35.5 69.7996 35.5 70.0996ZM28.2 67.6996C28.3 67.4996 28.3999 67.1996 28.3999 66.9996C28.3999 66.7996 28.3999 66.5996 28.3999 66.4996C28.3999 66.3996 28.3 66.1996 28.2 66.0996C28.1 65.9996 27.9999 65.8996 27.8999 65.8996C27.7999 65.7996 27.6 65.7996 27.5 65.7996C27.4 65.7996 27.2 65.7996 27.1 65.8996C27 65.9996 26.8 66.0996 26.7 66.1996C26.6 66.3996 26.4999 66.5996 26.3999 66.7996C26.2999 67.0996 26.2 67.2996 26.2 67.4996C26.2 67.6996 26.2 67.8996 26.2 67.9996C26.2 68.1996 26.2999 68.2996 26.3999 68.3996C26.4999 68.4996 26.6 68.5996 26.7 68.5996C26.8 68.5996 27 68.6996 27.1 68.6996C27.2 68.6996 27.4 68.6996 27.5 68.5996C27.6 68.4996 27.7999 68.3996 27.8999 68.2996C27.9999 68.1996 28.1 67.9996 28.2 67.6996ZM29.3 68.1996C29 68.8996 28.6 69.2996 28.1 69.5996C27.6 69.7996 26.9999 69.7996 26.3999 69.5996C25.7999 69.2996 25.4 68.9996 25.2 68.3996C25 67.8996 25 67.2996 25.3 66.5996C25.6 65.8996 26 65.4996 26.5 65.1996C27 64.9996 27.6 64.9996 28.2 65.1996C28.8 65.4996 29.1999 65.7996 29.3999 66.3996C29.5999 66.8996 29.6 67.4996 29.3 68.1996ZM21.2 66.8996L23 63.7996L21.8999 63.0996L22.3 62.3996L25.5 64.2996L25.1 64.9996L24 64.2996L22.2 67.3996L21.2 66.8996ZM18.2 62.1996C18.4 61.9996 18.5 61.7996 18.6 61.4996C18.7 61.2996 18.7 61.0996 18.6 60.7996C18.5 60.5996 18.5 60.4996 18.3 60.3996C18.2 60.2996 17.9999 60.1996 17.8999 59.9996L16.1 62.0996C16.3 62.2996 16.5 62.3996 16.6 62.4996C16.7 62.5996 16.9 62.6996 17.1 62.6996C17.3 62.6996 17.5 62.6996 17.7 62.5996C17.8 62.4996 18 62.3996 18.2 62.1996ZM19.1 62.8996C18.8 63.1996 18.5 63.3996 18.2 63.5996C17.8 63.6996 17.5 63.7996 17.2 63.6996C16.9 63.6996 16.6999 63.5996 16.3999 63.3996C16.1999 63.2996 15.9 63.0996 15.7 62.8996L14.7 61.9996L17.6 58.5996L18.6 59.4996C18.8 59.6996 19 59.8996 19.2 60.0996C19.4 60.2996 19.5 60.5996 19.6 60.7996C19.7 61.0996 19.7 61.4996 19.6 61.7996C19.5 62.2996 19.3 62.5996 19.1 62.8996ZM11.5 58.3996L14.8999 55.4996L16.8999 57.7996L16.3 58.3996L15.1 56.9996L14.5 57.4996L15.7 58.7996L15.1 59.3996L13.8999 58.0996L13.1 58.7996L14.3 60.1996L13.7 60.7996L11.5 58.3996ZM10.3999 56.8996L9.79996 55.8996L12.3 54.3996L10.2 54.6996L9.79996 53.9996L11 52.2996L8.49995 53.7996L7.99995 52.8996L11.8 50.5996L12.5 51.6996L11.1 53.6996L13.5 53.3996L14.2 54.4996L10.3999 56.8996ZM6.29996 48.4996L10.5 46.8996L11.6 49.6996L10.8 49.9996L10.1 48.1996L9.39995 48.4996L9.99995 50.0996L9.19995 50.3996L8.59996 48.7996L7.59996 49.1996L8.29996 50.9996L7.49995 51.2996L6.29996 48.4996ZM5.19995 43.8996L9.49995 42.8996L10.2 45.7996L9.39995 45.9996L8.99995 44.0996L8.19995 44.2996L8.59996 45.9996L7.79996 46.1996L7.39995 44.4996L6.29996 44.7996L6.69995 46.5996L5.89995 46.7996L5.19995 43.8996ZM7.09996 40.9996C7.39996 40.9996 7.59996 40.8996 7.79996 40.7996C7.99996 40.6996 8.09996 40.4996 8.29996 40.2996C8.39996 40.0996 8.39995 39.9996 8.39995 39.7996C8.39995 39.5996 8.39995 39.3996 8.39995 39.1996L5.59996 39.3996C5.59996 39.5996 5.59995 39.8996 5.69995 39.9996C5.69995 40.1996 5.79995 40.2996 5.89995 40.4996C5.99995 40.6996 6.19995 40.7996 6.39995 40.8996C6.49995 40.9996 6.79996 40.9996 7.09996 40.9996ZM7.09996 42.0996C6.69996 42.0996 6.29995 42.0996 5.99995 41.8996C5.69995 41.6996 5.39995 41.4996 5.19995 41.2996C4.99995 41.0996 4.89995 40.7996 4.89995 40.5996C4.79995 40.2996 4.79996 39.9996 4.79996 39.6996L4.69995 38.2996L9.09996 37.9996L9.19995 39.3996C9.19995 39.6996 9.19995 39.9996 9.19995 40.2996C9.19995 40.5996 9.09995 40.7996 8.99995 41.0996C8.79995 41.3996 8.59996 41.6996 8.29996 41.7996C7.89996 41.9996 7.59996 42.0996 7.09996 42.0996Z" fill="white"/>
    </svg>
    